<?xml version="1.0" encoding="UTF-8"?><svg id="uuid-e0dc884d-aa7b-4b08-8b4c-d4ac2d60843e" xmlns="http://www.w3.org/2000/svg" viewBox="0 0 251.5 185.98"><polygon points="92.13 185.98 0 92.62 93.11 .74 114.79 22.66 102.47 34.73 93.11 25.13 24.39 92.87 92.13 161.59 101 152.97 113.07 165.29 92.13 185.98" style="fill:#181c49;"/><polygon points="159.87 128.83 147.8 116.51 170.71 93.85 147.06 69.71 159.13 57.64 195.09 94.1 159.87 128.83" style="fill:#cecece;"/><path d="M158.39,184.99L66.51,91.88,136.47,22.91h0L159.62,0l91.88,93.36-93.11,91.63ZM90.9,92.13l67.74,68.73,68.48-67.74L159.38,24.39,90.9,92.13h0Z" style="fill:#181c49;"/></svg>