<?xml version="1.0" encoding="UTF-8"?>
<!-- Generator: Adobe Illustrator 26.2.1, SVG Export Plug-In . SVG Version: 6.00 Build 0)  -->
<svg version="1.1" id="Calque_1" xmlns="http://www.w3.org/2000/svg" xmlns:xlink="http://www.w3.org/1999/xlink" x="0px" y="0px" viewBox="0 0 396.5 139" style="enable-background:new 0 0 396.5 139;" xml:space="preserve">
<style type="text/css">
	.st0{fill:#FFFFFF;}
	.st1{fill:#CECECE;}
</style>
<g id="a">
</g>
<g id="b">
</g>
<g id="c">
</g>
<g id="d">
	<g>
		<g>
			<g>
				<path class="st0" d="M130.5,59.3v-0.2c0-17.9,14.1-32.6,33.6-32.6s33.4,14.5,33.4,32.4v0.2c0,17.9-14.1,32.6-33.6,32.6      S130.5,77.2,130.5,59.3z M183,59.3v-0.2c0-10.8-7.9-19.8-19.1-19.8S145,48.1,145,58.9v0.2c0,10.8,7.9,19.8,19.1,19.8      S183,70.1,183,59.3z"/>
				<path class="st0" d="M209.8,27.6h13.9v27.5l25.6-27.5H266l-25.7,26.7l26.8,36.3h-16.7L231,63.8l-7.3,7.6v19.3h-13.9L209.8,27.6      L209.8,27.6z"/>
				<path class="st0" d="M275.5,27.6h25.7c15,0,24.1,8.9,24.1,21.8v0.2c0,14.6-11.3,22.1-25.5,22.1h-10.5v18.9h-13.9V27.6z       M300.4,59.4c6.9,0,11-4.1,11-9.5v-0.2c0-6.2-4.3-9.5-11.2-9.5h-10.7v19.3L300.4,59.4L300.4,59.4z"/>
				<path class="st0" d="M363.9,77h-30.8l-2.2-9.8l34.6-40.1h11.7v38.6h8.5V77h-8.5v13.6h-13.2V77z M363.9,65.8V46.2l-16.7,19.6      H363.9z"/>
				<g id="d_00000107587646845012656790000014841587915284321937_">
					<g>
						<g>
							<g>
								<path class="st0" d="M154.6,78.4L132,100.9l-9.8-9.8L196,17.3l0,0l9.8,9.8l-32.3,32.3L154.6,78.4z"/>
							</g>
						</g>
					</g>
				</g>
			</g>
			<polygon class="st0" points="48.3,97.5 10.9,59.6 48.7,22.3 57.5,31.2 52.5,36.1 48.7,32.2 20.8,59.7 48.3,87.6 51.9,84.1      56.8,89.1    "/>
			<polygon class="st1" points="75.8,74.3 70.9,69.3 80.2,60.1 70.6,50.3 75.5,45.4 90.1,60.2    "/>
			<path class="st0" d="M75.2,97.1L37.9,59.3l28.4-28l0,0l9.4-9.3l37.3,37.9L75.2,97.1z M47.8,59.4l27.5,27.9l27.8-27.5L75.6,31.9     L47.8,59.4L47.8,59.4z"/>
		</g>
		<g>
			<path class="st0" d="M133,121.3c-0.5-0.3-0.9-0.7-1.2-1.2s-0.4-1.1-0.4-1.7v-2.8c0-0.6,0.1-1.2,0.4-1.7s0.7-0.9,1.2-1.2     c0.5-0.3,1.1-0.4,1.8-0.4s1.3,0.1,1.8,0.4c0.5,0.3,0.9,0.7,1.2,1.2c0.3,0.5,0.4,1.1,0.4,1.7v2.8c0,0.7-0.1,1.2-0.4,1.7     s-0.7,0.9-1.2,1.2c-0.5,0.3-1.1,0.4-1.8,0.4S133.5,121.6,133,121.3z M136,119.7c0.3-0.3,0.4-0.7,0.4-1.2v-2.9     c0-0.5-0.1-0.9-0.4-1.2c-0.3-0.3-0.7-0.5-1.2-0.5s-0.9,0.2-1.1,0.5s-0.4,0.7-0.4,1.2v2.9c0,0.5,0.1,0.9,0.4,1.2     c0.3,0.3,0.7,0.5,1.1,0.5S135.7,120,136,119.7z"/>
			<path class="st0" d="M147,112.8c0.4,0.2,0.8,0.6,1,1s0.4,0.9,0.4,1.5s-0.1,1-0.4,1.4s-0.6,0.7-1,1s-1,0.3-1.5,0.3h-1.9     c0,0-0.1,0-0.1,0.1v3.3c0,0,0,0.1,0,0.1s-0.1,0.1-0.1,0.1h-1.5c0,0-0.1,0-0.1-0.1c0,0-0.1-0.1-0.1-0.1v-8.8c0,0,0-0.1,0.1-0.1     s0.1-0.1,0.1-0.1h3.7C146.1,112.5,146.6,112.6,147,112.8L147,112.8z M146.2,116.2c0.2-0.2,0.4-0.5,0.4-0.9s-0.1-0.7-0.4-0.9     c-0.2-0.2-0.6-0.3-1-0.3h-1.6c0,0-0.1,0-0.1,0.1v2.4c0,0,0,0.1,0.1,0.1h1.6C145.6,116.6,145.9,116.5,146.2,116.2L146.2,116.2z"/>
			<path class="st0" d="M157.9,114c0,0-0.1,0-0.1,0h-4.3c0,0-0.1,0-0.1,0.1v2c0,0,0,0.1,0.1,0.1h2.8c0,0,0.1,0,0.1,0s0,0.1,0,0.1     v1.3c0,0,0,0.1,0,0.1s-0.1,0.1-0.1,0.1h-2.8c0,0-0.1,0-0.1,0.1v2.1c0,0,0,0.1,0.1,0.1h4.3c0,0,0.1,0,0.1,0.1s0.1,0.1,0.1,0.1v1.3     c0,0,0,0.1-0.1,0.1s-0.1,0.1-0.1,0.1h-6c0,0-0.1,0-0.1-0.1c0,0-0.1-0.1-0.1-0.1v-8.8c0,0,0-0.1,0.1-0.1c0,0,0.1,0,0.1,0h6     c0,0,0.1,0,0.1,0s0.1,0.1,0.1,0.1v1.3C157.9,113.9,157.9,114,157.9,114L157.9,114z"/>
			<path class="st0" d="M166.5,112.5c0,0,0.1,0,0.1,0h1.5c0,0,0.1,0,0.1,0s0,0.1,0,0.1v8.8c0,0,0,0.1,0,0.1s-0.1,0.1-0.1,0.1h-1.5     c-0.1,0-0.1,0-0.2-0.1l-3.4-5.6c0,0,0,0-0.1,0c0,0,0,0,0,0.1l0,5.5c0,0,0,0.1-0.1,0.1s-0.1,0.1-0.1,0.1h-1.5c0,0-0.1,0-0.1-0.1     c0,0-0.1-0.1-0.1-0.1v-8.8c0,0,0-0.1,0.1-0.1c0,0,0.1,0,0.1,0h1.5c0.1,0,0.1,0,0.2,0.1l3.4,5.5c0,0,0,0,0.1,0c0,0,0,0,0-0.1v-5.5     C166.5,112.7,166.5,112.6,166.5,112.5L166.5,112.5z"/>
			<path class="st0" d="M176.8,121.5c0,0-0.1-0.1-0.1-0.1v-8.8c0,0,0-0.1,0.1-0.1c0,0,0.1,0,0.1,0h1.5c0,0,0.1,0,0.1,0     s0.1,0.1,0.1,0.1v3.6c0,0,0,0,0,0c0,0,0,0,0.1,0l3-3.7c0.1-0.1,0.1-0.1,0.2-0.1h1.7c0.1,0,0.1,0,0.1,0.1s0,0.1,0,0.1l-2.9,3.7     c0,0,0,0.1,0,0.1l3.1,4.9c0,0.1,0,0.1,0,0.1c0,0.1,0,0.1-0.1,0.1H182c-0.1,0-0.1,0-0.2-0.1l-2.3-3.7c0,0,0,0,0,0c0,0,0,0-0.1,0     l-0.8,1c0,0,0,0.1,0,0.1v2.6c0,0,0,0.1-0.1,0.1s-0.1,0.1-0.1,0.1h-1.5C176.9,121.6,176.8,121.6,176.8,121.5L176.8,121.5z"/>
			<path class="st0" d="M192.2,112.5c0,0,0.1,0,0.1,0h1.5c0,0,0.1,0,0.1,0s0,0.1,0,0.1v8.8c0,0,0,0.1,0,0.1s-0.1,0.1-0.1,0.1h-1.5     c-0.1,0-0.1,0-0.2-0.1l-3.4-5.6c0,0,0,0-0.1,0c0,0,0,0,0,0.1l0,5.5c0,0,0,0.1-0.1,0.1s-0.1,0.1-0.1,0.1h-1.5c0,0-0.1,0-0.1-0.1     c0,0-0.1-0.1-0.1-0.1v-8.8c0,0,0-0.1,0.1-0.1c0,0,0.1,0,0.1,0h1.5c0.1,0,0.1,0,0.2,0.1l3.4,5.5c0,0,0,0,0.1,0c0,0,0,0,0-0.1v-5.5     C192.2,112.7,192.2,112.6,192.2,112.5L192.2,112.5z"/>
			<path class="st0" d="M199.1,121.3c-0.5-0.3-0.9-0.7-1.2-1.2s-0.4-1.1-0.4-1.7v-2.8c0-0.6,0.1-1.2,0.4-1.7s0.7-0.9,1.2-1.2     c0.5-0.3,1.1-0.4,1.8-0.4s1.3,0.1,1.8,0.4c0.5,0.3,0.9,0.7,1.2,1.2c0.3,0.5,0.4,1.1,0.4,1.7v2.8c0,0.7-0.1,1.2-0.4,1.7     s-0.7,0.9-1.2,1.2c-0.5,0.3-1.1,0.4-1.8,0.4S199.6,121.6,199.1,121.3z M202.1,119.7c0.3-0.3,0.4-0.7,0.4-1.2v-2.9     c0-0.5-0.1-0.9-0.4-1.2c-0.3-0.3-0.7-0.5-1.2-0.5s-0.9,0.2-1.1,0.5s-0.4,0.7-0.4,1.2v2.9c0,0.5,0.1,0.9,0.4,1.2     c0.3,0.3,0.7,0.5,1.1,0.5S201.8,120,202.1,119.7z"/>
			<path class="st0" d="M209.5,121.5l-2.3-8.8v-0.1c0-0.1,0-0.1,0.1-0.1h1.6c0.1,0,0.1,0,0.2,0.1l1.2,5.3c0,0,0,0.1,0,0.1s0,0,0-0.1     l1.2-5.3c0-0.1,0.1-0.1,0.2-0.1h1.6c0.1,0,0.2,0,0.2,0.1l1.3,5.3c0,0,0,0,0,0c0,0,0,0,0,0l1.2-5.3c0-0.1,0.1-0.1,0.2-0.1h1.5     c0.1,0,0.2,0.1,0.1,0.2l-2.1,8.8c0,0.1-0.1,0.1-0.2,0.1h-1.6c-0.1,0-0.1,0-0.2-0.1l-1.3-5.6c0,0,0-0.1,0-0.1c0,0,0,0,0,0.1     l-1.2,5.6c0,0.1-0.1,0.1-0.2,0.1h-1.4C209.6,121.6,209.5,121.5,209.5,121.5L209.5,121.5z"/>
			<path class="st0" d="M221.2,121.5c0,0-0.1-0.1-0.1-0.1v-8.8c0,0,0-0.1,0.1-0.1c0,0,0.1,0,0.1,0h1.5c0,0,0.1,0,0.1,0     s0.1,0.1,0.1,0.1v7.3c0,0,0,0.1,0.1,0.1h4.2c0,0,0.1,0,0.1,0.1s0,0.1,0,0.1v1.3c0,0,0,0.1,0,0.1s-0.1,0.1-0.1,0.1h-6     C221.3,121.6,221.2,121.6,221.2,121.5L221.2,121.5z"/>
			<path class="st0" d="M236.9,114c0,0-0.1,0-0.1,0h-4.3c0,0-0.1,0-0.1,0.1v2c0,0,0,0.1,0.1,0.1h2.8c0,0,0.1,0,0.1,0s0,0.1,0,0.1     v1.3c0,0,0,0.1,0,0.1s-0.1,0.1-0.1,0.1h-2.8c0,0-0.1,0-0.1,0.1v2.1c0,0,0,0.1,0.1,0.1h4.3c0,0,0.1,0,0.1,0.1s0.1,0.1,0.1,0.1v1.3     c0,0,0,0.1-0.1,0.1s-0.1,0.1-0.1,0.1h-6c0,0-0.1,0-0.1-0.1c0,0-0.1-0.1-0.1-0.1v-8.8c0,0,0-0.1,0.1-0.1c0,0,0.1,0,0.1,0h6     c0,0,0.1,0,0.1,0s0.1,0.1,0.1,0.1v1.3C237,113.9,237,114,236.9,114L236.9,114z"/>
			<path class="st0" d="M240.4,121.5c0,0-0.1-0.1-0.1-0.1v-8.8c0,0,0-0.1,0.1-0.1c0,0,0.1,0,0.1,0h3.2c0.6,0,1.2,0.1,1.7,0.3     c0.5,0.2,0.9,0.6,1.1,1s0.4,0.9,0.4,1.4v3.6c0,0.6-0.1,1-0.4,1.4c-0.3,0.4-0.6,0.7-1.1,1s-1.1,0.3-1.7,0.3h-3.2     C240.5,121.6,240.4,121.6,240.4,121.5L240.4,121.5z M242.2,120h1.6c0.4,0,0.7-0.1,1-0.4s0.4-0.6,0.4-1.1v-3     c0-0.4-0.1-0.8-0.4-1.1s-0.6-0.4-1-0.4h-1.6c0,0-0.1,0-0.1,0.1L242.2,120C242.2,119.9,242.2,120,242.2,120L242.2,120z"/>
			<path class="st0" d="M251.9,121.3c-0.5-0.3-0.9-0.6-1.2-1.1s-0.4-1-0.4-1.7v-2.9c0-0.6,0.1-1.2,0.4-1.7s0.7-0.9,1.2-1.1     c0.5-0.3,1.1-0.4,1.8-0.4s1.2,0.1,1.8,0.4s0.9,0.6,1.2,1.1s0.4,0.9,0.4,1.5v0.1c0,0,0,0.1,0,0.1s-0.1,0.1-0.1,0.1h-1.5     c0,0-0.1,0-0.1-0.1s-0.1-0.1-0.1-0.1v0c0-0.4-0.1-0.7-0.4-1c-0.3-0.3-0.6-0.4-1.1-0.4s-0.8,0.2-1.1,0.4s-0.4,0.7-0.4,1.1v3     c0,0.5,0.1,0.8,0.5,1.1c0.3,0.3,0.7,0.4,1.2,0.4s0.8-0.1,1.1-0.4s0.4-0.6,0.4-1v-0.6c0,0,0-0.1-0.1-0.1h-1.5c0,0-0.1,0-0.1-0.1     s0-0.1,0-0.1v-1.2c0,0,0-0.1,0-0.1s0.1,0,0.1,0h3.2c0,0,0.1,0,0.1,0s0,0.1,0,0.1v1.7c0,0.7-0.1,1.2-0.4,1.7s-0.7,0.9-1.2,1.1     c-0.5,0.3-1.1,0.4-1.8,0.4S252.4,121.6,251.9,121.3L251.9,121.3z"/>
			<path class="st0" d="M266.8,114c0,0-0.1,0-0.1,0h-4.3c0,0-0.1,0-0.1,0.1v2c0,0,0,0.1,0.1,0.1h2.8c0,0,0.1,0,0.1,0s0,0.1,0,0.1     v1.3c0,0,0,0.1,0,0.1s-0.1,0.1-0.1,0.1h-2.8c0,0-0.1,0-0.1,0.1v2.1c0,0,0,0.1,0.1,0.1h4.3c0,0,0.1,0,0.1,0.1s0,0.1,0,0.1v1.3     c0,0,0,0.1,0,0.1s-0.1,0.1-0.1,0.1h-6c0,0-0.1,0-0.1-0.1c0,0,0-0.1,0-0.1v-8.8c0,0,0-0.1,0-0.1c0,0,0.1,0,0.1,0h6     c0,0,0.1,0,0.1,0s0,0.1,0,0.1v1.3C266.8,113.9,266.8,114,266.8,114L266.8,114z"/>
			<path class="st0" d="M280.2,112.8c0.4,0.2,0.8,0.6,1,1s0.4,0.9,0.4,1.5s-0.1,1-0.4,1.4s-0.6,0.7-1,1s-1,0.3-1.5,0.3h-1.9     c0,0-0.1,0-0.1,0.1v3.3c0,0,0,0.1,0,0.1s-0.1,0.1-0.1,0.1H275c0,0-0.1,0-0.1-0.1c0,0,0-0.1,0-0.1v-8.8c0,0,0-0.1,0-0.1     s0.1-0.1,0.1-0.1h3.7C279.2,112.5,279.7,112.6,280.2,112.8L280.2,112.8z M279.3,116.2c0.2-0.2,0.4-0.5,0.4-0.9s-0.1-0.7-0.4-0.9     c-0.2-0.2-0.6-0.3-1-0.3h-1.6c0,0-0.1,0-0.1,0.1v2.4c0,0,0,0.1,0.1,0.1h1.6C278.8,116.6,279.1,116.5,279.3,116.2L279.3,116.2z"/>
			<path class="st0" d="M289.6,121.5l-1.6-3.6c0,0,0-0.1-0.1-0.1h-1.2c0,0-0.1,0-0.1,0.1v3.6c0,0,0,0.1,0,0.1s-0.1,0.1-0.1,0.1h-1.5     c0,0-0.1,0-0.1-0.1c0,0,0-0.1,0-0.1v-8.8c0,0,0-0.1,0-0.1c0,0,0.1,0,0.1,0h3.7c0.5,0,1,0.1,1.5,0.3c0.4,0.2,0.8,0.6,1,1     s0.3,0.9,0.3,1.4c0,0.6-0.1,1.1-0.4,1.5c-0.3,0.4-0.7,0.7-1.2,0.9c0,0-0.1,0.1,0,0.1l1.8,3.7c0,0,0,0.1,0,0.1     c0,0.1,0,0.1-0.1,0.1h-1.6C289.6,121.6,289.6,121.5,289.6,121.5L289.6,121.5z M286.6,114.1v2.2c0,0,0,0.1,0.1,0.1h1.7     c0.4,0,0.7-0.1,0.9-0.3s0.3-0.5,0.3-0.8s-0.1-0.6-0.3-0.8s-0.5-0.3-0.9-0.3L286.6,114.1C286.6,114.1,286.6,114.1,286.6,114.1     L286.6,114.1z"/>
			<path class="st0" d="M296.3,121.3c-0.5-0.3-0.9-0.7-1.2-1.2s-0.4-1.1-0.4-1.7v-2.8c0-0.6,0.1-1.2,0.4-1.7     c0.3-0.5,0.7-0.9,1.2-1.2c0.5-0.3,1.1-0.4,1.8-0.4s1.3,0.1,1.8,0.4c0.5,0.3,0.9,0.7,1.2,1.2c0.3,0.5,0.4,1.1,0.4,1.7v2.8     c0,0.7-0.1,1.2-0.4,1.7c-0.3,0.5-0.7,0.9-1.2,1.2c-0.5,0.3-1.1,0.4-1.8,0.4S296.8,121.6,296.3,121.3z M299.2,119.7     c0.3-0.3,0.4-0.7,0.4-1.2v-2.9c0-0.5-0.1-0.9-0.4-1.2s-0.7-0.5-1.2-0.5s-0.9,0.2-1.1,0.5s-0.4,0.7-0.4,1.2v2.9     c0,0.5,0.1,0.9,0.4,1.2c0.3,0.3,0.7,0.5,1.1,0.5S298.9,120,299.2,119.7z"/>
			<path class="st0" d="M311.3,112.5c0,0,0,0.1,0,0.1v1.3c0,0,0,0.1,0,0.1s-0.1,0.1-0.1,0.1h-2.3c0,0-0.1,0-0.1,0.1v7.3     c0,0,0,0.1,0,0.1s-0.1,0.1-0.1,0.1h-1.5c0,0-0.1,0-0.1-0.1c0,0,0-0.1,0-0.1v-7.3c0,0,0-0.1-0.1-0.1h-2.3c0,0-0.1,0-0.1-0.1     s0-0.1,0-0.1v-1.3c0,0,0-0.1,0-0.1s0.1,0,0.1,0h6.5C311.2,112.5,311.3,112.5,311.3,112.5L311.3,112.5z"/>
			<path class="st0" d="M315.7,121.3c-0.5-0.3-0.9-0.7-1.2-1.2s-0.4-1.1-0.4-1.7v-2.8c0-0.6,0.1-1.2,0.4-1.7     c0.3-0.5,0.7-0.9,1.2-1.2c0.5-0.3,1.1-0.4,1.8-0.4s1.3,0.1,1.8,0.4c0.5,0.3,0.9,0.7,1.2,1.2c0.3,0.5,0.4,1.1,0.4,1.7v2.8     c0,0.7-0.1,1.2-0.4,1.7c-0.3,0.5-0.7,0.9-1.2,1.2c-0.5,0.3-1.1,0.4-1.8,0.4S316.2,121.6,315.7,121.3z M318.6,119.7     c0.3-0.3,0.4-0.7,0.4-1.2v-2.9c0-0.5-0.1-0.9-0.4-1.2s-0.7-0.5-1.2-0.5s-0.9,0.2-1.1,0.5s-0.4,0.7-0.4,1.2v2.9     c0,0.5,0.1,0.9,0.4,1.2c0.3,0.3,0.7,0.5,1.1,0.5S318.3,120,318.6,119.7z"/>
			<path class="st0" d="M325.8,121.3c-0.5-0.3-0.9-0.6-1.2-1.1s-0.4-1-0.4-1.7v-3c0-0.6,0.1-1.2,0.4-1.7s0.7-0.8,1.2-1.1     c0.5-0.3,1.1-0.4,1.8-0.4s1.2,0.1,1.8,0.4s0.9,0.6,1.2,1.1c0.3,0.5,0.4,1,0.4,1.6c0,0.1,0,0.1-0.2,0.1l-1.5,0.1h0     c-0.1,0-0.1-0.1-0.1-0.1c0-0.5-0.1-0.8-0.4-1.1c-0.3-0.3-0.6-0.4-1.1-0.4s-0.8,0.1-1.1,0.4s-0.4,0.7-0.4,1.1v3.1     c0,0.4,0.1,0.8,0.4,1.1s0.7,0.4,1.1,0.4s0.8-0.1,1.1-0.4s0.4-0.6,0.4-1.1c0-0.1,0-0.1,0.2-0.1l1.5,0.1c0,0,0.1,0,0.1,0     s0,0.1,0,0.1c0,0.6-0.1,1.1-0.4,1.6s-0.7,0.8-1.2,1.1c-0.5,0.2-1.1,0.4-1.8,0.4S326.3,121.6,325.8,121.3L325.8,121.3z"/>
			<path class="st0" d="M335.8,121.3c-0.5-0.3-0.9-0.7-1.2-1.2s-0.4-1.1-0.4-1.7v-2.8c0-0.6,0.1-1.2,0.4-1.7     c0.3-0.5,0.7-0.9,1.2-1.2c0.5-0.3,1.1-0.4,1.8-0.4s1.3,0.1,1.8,0.4c0.5,0.3,0.9,0.7,1.2,1.2c0.3,0.5,0.4,1.1,0.4,1.7v2.8     c0,0.7-0.1,1.2-0.4,1.7c-0.3,0.5-0.7,0.9-1.2,1.2c-0.5,0.3-1.1,0.4-1.8,0.4S336.4,121.6,335.8,121.3z M338.8,119.7     c0.3-0.3,0.4-0.7,0.4-1.2v-2.9c0-0.5-0.1-0.9-0.4-1.2s-0.7-0.5-1.2-0.5s-0.9,0.2-1.1,0.5s-0.4,0.7-0.4,1.2v2.9     c0,0.5,0.1,0.9,0.4,1.2c0.3,0.3,0.7,0.5,1.1,0.5S338.5,120,338.8,119.7z"/>
			<path class="st0" d="M344.6,121.5c0,0,0-0.1,0-0.1v-8.8c0,0,0-0.1,0-0.1c0,0,0.1,0,0.1,0h1.5c0,0,0.1,0,0.1,0s0,0.1,0,0.1v7.3     c0,0,0,0.1,0.1,0.1h4.2c0,0,0.1,0,0.1,0.1s0,0.1,0,0.1v1.3c0,0,0,0.1,0,0.1s-0.1,0.1-0.1,0.1h-6     C344.7,121.6,344.6,121.6,344.6,121.5L344.6,121.5z"/>
			<path class="st0" d="M365,114c0,0-0.1,0-0.1,0h-4.2c0,0-0.1,0-0.1,0.1v2c0,0,0,0.1,0.1,0.1h2.8c0,0,0.1,0,0.1,0s0,0.1,0,0.1v1.3     c0,0,0,0.1,0,0.1s-0.1,0.1-0.1,0.1h-2.8c0,0-0.1,0-0.1,0.1v3.6c0,0,0,0.1,0,0.1s-0.1,0.1-0.1,0.1h-1.5c0,0-0.1,0-0.1-0.1     c0,0,0-0.1,0-0.1v-8.8c0,0,0-0.1,0-0.1c0,0,0.1,0,0.1,0h6c0,0,0.1,0,0.1,0s0,0.1,0,0.1v1.3C365.1,113.9,365.1,114,365,114     L365,114z"/>
			<path class="st0" d="M369.6,121.3c-0.5-0.3-0.9-0.7-1.2-1.2s-0.4-1.1-0.4-1.7v-2.8c0-0.6,0.1-1.2,0.4-1.7     c0.3-0.5,0.7-0.9,1.2-1.2c0.5-0.3,1.1-0.4,1.8-0.4s1.3,0.1,1.8,0.4c0.5,0.3,0.9,0.7,1.2,1.2c0.3,0.5,0.4,1.1,0.4,1.7v2.8     c0,0.7-0.1,1.2-0.4,1.7c-0.3,0.5-0.7,0.9-1.2,1.2c-0.5,0.3-1.1,0.4-1.8,0.4S370.1,121.6,369.6,121.3z M372.5,119.7     c0.3-0.3,0.4-0.7,0.4-1.2v-2.9c0-0.5-0.1-0.9-0.4-1.2s-0.7-0.5-1.2-0.5s-0.9,0.2-1.1,0.5s-0.4,0.7-0.4,1.2v2.9     c0,0.5,0.1,0.9,0.4,1.2c0.3,0.3,0.7,0.5,1.1,0.5S372.2,120,372.5,119.7z"/>
			<path class="st0" d="M383.1,121.5l-1.6-3.6c0,0,0-0.1-0.1-0.1h-1.2c0,0-0.1,0-0.1,0.1v3.6c0,0,0,0.1,0,0.1s-0.1,0.1-0.1,0.1h-1.5     c0,0-0.1,0-0.1-0.1c0,0,0-0.1,0-0.1v-8.8c0,0,0-0.1,0-0.1c0,0,0.1,0,0.1,0h3.7c0.5,0,1,0.1,1.5,0.3c0.4,0.2,0.8,0.6,1,1     s0.3,0.9,0.3,1.4c0,0.6-0.1,1.1-0.4,1.5c-0.3,0.4-0.7,0.7-1.2,0.9c0,0-0.1,0.1,0,0.1l1.8,3.7c0,0,0,0.1,0,0.1     c0,0.1,0,0.1-0.1,0.1h-1.6C383.2,121.6,383.1,121.5,383.1,121.5L383.1,121.5z M380.1,114.1v2.2c0,0,0,0.1,0.1,0.1h1.7     c0.4,0,0.7-0.1,0.9-0.3s0.3-0.5,0.3-0.8s-0.1-0.6-0.3-0.8s-0.5-0.3-0.9-0.3L380.1,114.1C380.2,114.1,380.1,114.1,380.1,114.1     L380.1,114.1z"/>
		</g>
	</g>
</g>
</svg>